PathFileType	4	(X/Y/Z)	Patient4_TMGait_0pt4_03_right_35.trc.trc
DataRate	CameraRate	NumFrames	NumMarkers	Units	OrigDataRate	OrigDataStartFrame	OrigNumFrames
74.468085106383	74.468085106383	5	33	mm	74.468085106383	106	       141
Frame#	Time	Sacral			L.Shoulder			Chest			R.Shoulder			Neck			R.ASIS			L.ASIS			R.Thigh.Superior			R.Thigh.Lateral			R.Thigh.Inferior			R.Patella			L.Thigh.Superior			L.Thigh.Lateral			L.Thigh.Inferior			L.Patella			L.Shank.Superior			L.Shank.Lateral			L.Shank.Inferior			R.Shank.Superior			R.Shank.Lateral			R.Shank.Inferior			R.Heel			R.Midfoot.Superior			R.Midfoot.Lateral			R.Toe			L.Heel			L.Midfoot.Lateral			L.Midfoot.Superior			L.Toe			L.Elbow			L.Wrist			R.Elbow			R.Wrist			
		X1	Y1	Z1	X2	Y2	Z2	X3	Y3	Z3	X4	Y4	Z4	X5	Y5	Z5	X6	Y6	Z6	X7	Y7	Z7	X8	Y8	Z8	X9	Y9	Z9	X10	Y10	Z10	X11	Y11	Z11	X12	Y12	Z12	X13	Y13	Z13	X14	Y14	Z14	X15	Y15	Z15	X16	Y16	Z16	X17	Y17	Z17	X18	Y18	Z18	X19	Y19	Z19	X20	Y20	Z20	X21	Y21	Z21	X22	Y22	Z22	X23	Y23	Z23	X24	Y24	Z24	X25	Y25	Z25	X26	Y26	Z26	X27	Y27	Z27	X28	Y28	Z28	X29	Y29	Z29	X30	Y30	Z30	X31	Y31	Z31	X32	Y32	Z32	X33	Y33	Z33	

106	47.060000000000	853.223572438095	1010.877157269283	417.774468691411	1037.860607171191	1432.806896701549	212.996297654925	1139.017649011625	1372.159413955410	378.238864980677	1052.981073800791	1452.551074419898	548.591529501613	1024.009649435341	1500.673243202594	365.725469503486	1086.243662283768	954.321920556518	530.129290982441	1066.454094933479	966.865171278958	257.277140482763	1170.908220263042	786.736868500456	500.902540564892	1140.256489339764	666.395937170664	582.917863739829	1226.206361255570	627.023357952742	501.404200374180	1252.994324205302	522.012146322248	527.154730419162	1107.213755704673	751.223121939084	282.812986501434	1009.529160091568	638.184455975729	228.678152916067	1094.477949680937	558.389846635258	286.332346412406	1092.176977250909	490.417743238595	296.691837186604	1065.566375213766	419.162929045722	290.716332560091	972.060358316608	304.379694935618	246.050205780412	1028.402475647695	193.987080749288	316.106726992732	1191.595302442009	438.179177977600	540.975370443421	1086.465057628623	377.722567732825	612.524965294915	1090.053147890981	266.329823160853	566.891714719303	905.237512570380	166.843883360698	558.155118509729	1084.144407791242	141.681416395924	585.243441333832	979.949102604096	119.521464706717	626.314390266430	1169.781301174616	42.088827599910	603.190781138110	904.201448797694	38.802380899812	371.149309866181	972.273373950462	35.050000567439	285.104461193816	1057.695592446142	96.363973579100	306.398086083884	1184.216861322049	43.008090110034	269.462566219457	1063.362104265178	1091.582870939572	70.956318690465	1241.956487196419	899.399489457294	48.482337659063	953.324460227595	1126.566107658469	681.388395136751	977.006275908932	865.439195094102	690.392838683052	
107	47.073428571429	852.378218680767	1011.409948889225	416.043147421852	1040.153535609755	1432.730727242439	212.386981811074	1139.180344126410	1372.152161605063	378.907005468759	1051.382792988879	1453.068868704426	548.164438287473	1024.611693693698	1500.824847492849	364.907659630287	1084.341550814021	954.787582219261	530.771695523340	1067.186505371614	967.088692606323	257.572099796086	1169.069460233136	787.530654556435	501.547678402883	1139.001728482752	667.418985216273	583.932193044378	1224.255896011582	627.761853931662	501.948574805220	1252.296921561769	524.866834664203	527.871686867876	1105.318074228612	750.518390545281	284.244739410890	1007.034499213128	638.287766520784	228.545879297769	1090.508198965471	557.796782232559	287.107564785305	1087.410901682653	490.008489197955	297.380747894034	1060.835453185454	418.949348152712	291.079573519029	967.346648361232	304.312174704072	245.997742824964	1023.212599568464	193.850988177726	316.264738498439	1195.278298615025	439.593067356578	542.030019356726	1094.642293540898	373.083305095551	614.092436731638	1104.871887609272	262.163575908506	568.296101346245	926.854767061170	151.580870578145	559.947894372679	1106.849644716477	137.320639244601	586.742197555196	1004.376364270766	109.026553431862	628.061801352726	1198.210535903997	43.422285308534	604.661418241648	898.769886569546	38.760718462593	371.140350598644	966.846708476646	35.024025330192	285.083799952030	1052.279147898660	96.326311759403	306.458183714950	1178.814149581846	42.980973308511	269.475692674949	1067.534563420752	1092.219298589223	69.603286444635	1248.872840362574	902.446134669955	48.287469593318	944.708734351769	1129.532625249149	679.973344352016	962.831542273206	867.907672448323	689.781065669630	
108	47.086857142857	851.605281029447	1011.841302344802	414.440102530742	1042.444647514859	1432.541011521970	211.982130194188	1139.402356196012	1372.005031709654	379.707679623842	1049.941865043013	1453.433779745879	547.897751175291	1025.302703380277	1500.858181468234	364.294089139073	1082.505181557619	955.026428076279	531.507674338919	1067.915926712923	967.189120372022	257.927822835584	1166.777553778986	787.538686427601	502.488466936787	1136.699262485806	667.835934489401	585.228681447644	1221.215479704340	627.594628537750	502.851603900610	1250.259277383133	527.069119426774	528.799443920142	1103.405420536748	749.785051739551	285.659083933729	1004.578725640977	638.352437000314	228.402498646767	1086.579080673716	557.192115236875	287.833222830549	1082.697032073124	489.588352099010	298.006200192272	1056.161090638073	418.709120380217	291.407656250970	962.678857768617	304.221189125465	245.911464725309	1018.037429820784	193.690170170515	316.407811742609	1198.024305197886	440.703645431051	543.303937582101	1102.619350280957	368.045263798796	615.960626679804	1119.869117383829	258.094213270723	569.863717664173	949.878542766956	136.179915198349	561.822703420895	1130.310276126589	133.415993416215	588.314483377964	1030.036530283484	98.813181392428	629.891564854075	1227.354814696551	45.844273189070	606.283236123136	893.353099416549	38.715813645147	371.129412042287	961.421403776423	34.994070498937	285.066796747483	1046.867213866489	96.283175674536	306.525303181402	1173.414049460068	42.939619526296	269.498708767976	1071.356445697597	1092.650251641073	68.596582904468	1255.385853871424	905.301221370635	48.543374832888	936.880847204562	1132.273739201166	678.693715805934	950.023928857854	870.300795661159	689.287986325752	
109	47.100285714286	850.913998723086	1012.168913372399	412.984885405214	1044.692840826471	1432.249506193774	211.789427838799	1139.682879636552	1371.720714060036	380.628444213931	1048.685276810787	1453.635756447117	547.793249583087	1026.076973918136	1500.777231962428	363.904263372853	1080.760100995538	955.037423866557	532.313275272918	1068.603805207659	967.138341856586	258.335078238545	1164.042321597224	786.758686176965	503.693600373760	1133.370115975862	667.654643846226	586.778675783765	1217.149834761821	626.566555887397	504.087916103193	1246.975630988969	528.618707517460	529.882161602528	1101.513143245665	749.021568264838	287.010547127233	1002.197252344859	638.371721347731	228.265564648548	1082.745790308587	556.572794098840	288.511317583765	1078.100999386378	489.150364920808	298.575787468264	1051.592685703672	418.436229340336	291.710308322497	958.087835291677	304.114548471053	245.802418643404	1012.897470329779	193.502705619211	316.541865650709	1199.837440533443	441.568692343580	544.744089096101	1110.331920254760	362.828818186144	618.061879857759	1134.812978468650	254.378452579286	571.515830826467	973.983646980892	121.190280204298	563.684345055096	1154.141427598126	130.263847649368	589.870357142103	1056.526691857378	89.306895908016	631.694128016646	1256.668726809211	49.534311867814	607.919520983980	887.949789554698	38.670946407123	371.113535470356	955.998410729508	34.961535232161	285.052308237506	1041.460971332867	96.234587319960	306.597541334655	1168.017361251796	42.882130780955	269.529658579821	1074.849131146214	1092.872598191580	67.958225684017	1261.485493656948	907.938293099721	49.243438232752	929.850062904461	1134.740375493462	677.582801616347	938.606424708822	872.538580837406	688.965666383585	
110	47.113714285714	850.315331590613	1012.392702094956	411.697051591143	1046.857098727239	1431.875076697185	211.814659460384	1140.017703372323	1371.311023250068	381.658248602300	1047.631073487062	1453.673837289424	547.854032537539	1026.921291566332	1500.592503651906	363.755024074305	1079.131489774346	954.831963735778	533.169786122110	1069.223970627842	966.923905009467	258.793586338273	1160.902866771882	785.236160881059	505.127177285019	1129.104631664006	666.917090264121	588.546261588973	1212.187269095585	624.772635960191	505.613374448306	1242.604825036886	529.550794150886	531.063724502081	1099.683096423029	748.229464373805	288.271852084789	999.922883618211	638.342721464431	228.157581212519	1079.056019295566	555.936875408507	289.153812332254	1073.678486940994	488.688143087978	299.104226612449	1047.170615037061	418.127147177429	292.001746578600	953.597224610655	304.002037561191	245.685933894153	1007.808791045119	193.288484409531	316.673556248232	1200.757410467992	442.242961041176	546.293448914867	1117.678836139414	357.646782655418	620.303872825756	1149.418278907988	251.219289573682	573.166887077738	998.682010525357	107.116900496706	565.422997337475	1177.860631524493	128.065550699576	591.316171375693	1083.298862901479	80.849364307270	633.349193366572	1285.521818110961	54.521939743948	609.431198925490	882.556820247960	38.630227473562	371.091072351850	950.578397715048	34.928105867876	285.039278383856	1036.061508583821	96.180944859695	306.672857929461	1162.624689940528	42.807797122497	269.566300213358	1078.032380654374	1092.893578802531	67.709301069462	1267.161600309115	910.337347154362	50.382846948009	923.629133256952	1136.894147156213	676.673088002787	928.599536431673	874.553786412183	688.853172662905	
